# xmcd
#
# Track frame offsets: 
#        150
#        18417
#        32822
#        48720
#        60512
#        77825
#        93557
#        107900
#        121840
#        137870
#
# Disc length: 2073 seconds
#
# Revision: 3
# Processed by: cddbd v1.5.1PL2 Copyright (c) Steve Scherf et al.
# Submitted via: ExactAudioCopy v0.95b3
#
DISCID=8608170a
DTITLE=Keith Harling - Write It In Stone
DYEAR=1998
DGENRE=Country
TTITLE0=Papa Bear
TTITLE1=Write It In Stone
TTITLE2=I Love What I See
TTITLE3=Right In The Middle
TTITLE4=I Never Go Around Mirrors
TTITLE5=Coming Back For You
TTITLE6=There Goes The Neighborhood
TTITLE7=Afterthoughts
TTITLE8=Walkin' Away
TTITLE9=Three Words Away
EXTD=
EXTT0=
EXTT1=
EXTT2=
EXTT3=
EXTT4=
EXTT5=
EXTT6=
EXTT7=
EXTT8=
EXTT9=
PLAYORDER=
